<svg xmlns="http://www.w3.org/2000/svg" xmlns:xlink="http://www.w3.org/1999/xlink" viewBox="0 0 105.26 116.16"><defs><style>.cls-1{fill:#e7deda;}.cls-2{fill:#ede3de;}.cls-3{fill:#816654;}.cls-4{fill:#b5b7ad;}.cls-5{clip-path:url(#clip-path);}.cls-6{fill:#dcc4b8;}.cls-7{clip-path:url(#clip-path-2);}.cls-8{clip-path:url(#clip-path-3);}.cls-9{clip-path:url(#clip-path-4);}.cls-10{fill:#dabfb9;}.cls-11{fill:#333030;}.cls-12{fill:#4d3f39;}.cls-13{fill:none;stroke:#333030;stroke-linecap:round;stroke-miterlimit:10;}.cls-14{clip-path:url(#clip-path-5);}.cls-15{fill:#6d594c;}.cls-16{clip-path:url(#clip-path-6);}.cls-17{fill:#8d9082;}</style><clipPath id="clip-path"><path class="cls-1" d="M71.24,45.25s5.16.33,4.48,7.43-7.4,9.9-7.4,9.9Z"/></clipPath><clipPath id="clip-path-2"><path class="cls-1" d="M13.91,45.25s-5.16.33-4.48,7.43,7.4,9.9,7.4,9.9Z"/></clipPath><clipPath id="clip-path-3"><path class="cls-2" d="M69,111.51s-11.31-17.67-13-21,.21-12.09.21-12.09l-27-.24s1.48,8.92-.21,12.29S16.2,111.51,16.2,111.51Z"/></clipPath><clipPath id="clip-path-4"><path class="cls-1" d="M59.32,78.59c7.22-5,14.39-26.33,11.46-43.32s-24.24-20.2-28.2-20.2-25.27,3.22-28.2,20.2,4.24,38.29,11.46,43.32,8.71,6.89,17,6.9S52.1,83.62,59.32,78.59Z"/></clipPath><clipPath id="clip-path-5"><path class="cls-3" d="M13.8,45.58s2-14.62,6.6-15.4S33.45,19,33.45,19s11.2,11.32,16.29,12.42,18.81,9.74,19.49,10.69S70.7,49,70.7,49s8.33-7.23,7.86-9.59-1.36-17.45-3-18.23S59.22,12.26,58,9.43,49.56-.15,46.22,0,31.09,11,31.09,11,24.8,6.13,22.91,7.23s-2.36,8.49-5.5,10.85S7,31.75,7,35.68,13.8,45.58,13.8,45.58Z"/></clipPath><clipPath id="clip-path-6"><path class="cls-4" d="M30,90.33s-.17,3.62-1.91,4.28-2.3,4.84-2.3,4.84,9.9,1.73,13.28,3.71,6.51,7,6.51,7,7-9.07,8.49-9.32,4.69-6.91,3.38-7.26c-2.81-.74-3-10.92-1.71-12.49s3,1.6,4.68,1.6,3.63.08,3.88,2.06,2.8,5,2.8,5,16.35,9.92,16.9,10.14c30,12,4,12.21-1,12.46s-21-.14-22.17,2.75-16.6-1.26-18.33-1.83-14.85.17-16.42.17S1.48,112.74.07,112.9s17.52-7.35,16.86-9.24-3.13-7.83-2.06-9.24,8.82-9.48,10.56-9.9a18.15,18.15,0,0,1,4.27-.26Z"/></clipPath></defs><title>Ресурс 4</title><g id="Слой_2" data-name="Слой 2"><g id="Слой_5" data-name="Слой 5"><path class="cls-1" d="M71.24,45.25s5.16.33,4.48,7.43-7.4,9.9-7.4,9.9Z"/><g class="cls-5"><path class="cls-6" d="M69.73,49s5.11.23,5.56,3.6,6,1.27,6,1.27l-2-9.38S73,43,72.73,42.81s-6.76,0-6.76,0Z"/><path class="cls-6" d="M70.09,45.25l-3,19.42s5.67-8.53,5.83-12a77.27,77.27,0,0,0-.85-10.5Z"/></g><path class="cls-1" d="M13.91,45.25s-5.16.33-4.48,7.43,7.4,9.9,7.4,9.9Z"/><g class="cls-7"><path class="cls-6" d="M9.37,53.17S10.12,49,12.29,49a13.42,13.42,0,0,0,4.88-1.35l-4.43-4.58S8.39,46,8.16,47.61,9.37,53.17,9.37,53.17Z"/></g><path class="cls-2" d="M69,111.51s-11.31-17.67-13-21,.21-12.09.21-12.09l-27-.24s1.48,8.92-.21,12.29S16.2,111.51,16.2,111.51Z"/><g class="cls-8"><path class="cls-6" d="M26.12,74.2s7.44,16.19,20.94,18.38S65.43,75.88,65.43,75.88s-11.81-3.37-11.87-3.56S26.12,74.2,26.12,74.2Z"/></g><path class="cls-1" d="M59.32,78.59c7.22-5,14.39-26.33,11.46-43.32s-24.24-20.2-28.2-20.2-25.27,3.22-28.2,20.2,4.24,38.29,11.46,43.32,8.71,6.89,17,6.9S52.1,83.62,59.32,78.59Z"/><g class="cls-9"><path class="cls-6" d="M11.91,44.8s4.42-10.6,6.75-10.6,13.08-8,14.67-10.13-.75-7.7-.75-8.2S24,12.86,19,20.28,11.91,44.8,11.91,44.8Z"/><path class="cls-6" d="M30.91,15.28s7.33,15.17,15.75,16.08S72,43.8,72,43.8L74.4,31.18C79.1,25.35,42.26,7.61,30.91,15.28Z"/></g><path class="cls-10" d="M42.58,60.49h0c-.65,0-2.41,3.53-2,3.94a8.45,8.45,0,0,0,4,0C45,64,43.23,60.51,42.58,60.49Z"/><ellipse class="cls-11" cx="31.93" cy="52.65" rx="1.83" ry="3.6"/><ellipse class="cls-11" cx="54.08" cy="52.65" rx="1.83" ry="3.6"/><path class="cls-12" d="M23.71,45.25c.27.93,6.53-.51,7.43-.4s4.9.91,5.35.4S32,42,30.1,42.15,23.37,44.08,23.71,45.25Z"/><path class="cls-12" d="M61.44,45.25c-.27.93-6.53-.51-7.43-.4s-4.9.91-5.35.4,4.45-3.21,6.39-3.1S61.78,44.08,61.44,45.25Z"/><path class="cls-13" d="M41.87,74.57A15.44,15.44,0,0,1,45.4,74a4.44,4.44,0,0,1,2.66.83"/><path class="cls-3" d="M13.8,45.58s2-14.62,6.6-15.4S33.45,19,33.45,19s11.2,11.32,16.29,12.42,18.81,9.74,19.49,10.69S70.7,49,70.7,49s8.33-7.23,7.86-9.59-1.36-17.45-3-18.23S59.22,12.26,58,9.43,49.56-.15,46.22,0,31.09,11,31.09,11,24.8,6.13,22.91,7.23s-2.36,8.49-5.5,10.85S7,31.75,7,35.68,13.8,45.58,13.8,45.58Z"/><g class="cls-14"><path class="cls-15" d="M62,37.82s9.11,1.54,10.8,4.66,1,9.63,1,9.63L69,52Z"/><path class="cls-15" d="M58.76,8.11s1.54,3.81-6.51.94-8.74-3.19-8.74-3.19,11,7.75,15.13,8.75,7.75-2.19,7.75-2.19Z"/><path class="cls-15" d="M72.76,19s4.71,9.85,1.88,14.38-3.69,14.13-3.69,14.13l10.63-4.06-2.31-23-5.62-2.69Z"/><path class="cls-15" d="M19.07,31.3S18.45,28,23,25.55s10.13-7.74,10.13-7.74l.63,2L27.39,30Z"/><path class="cls-15" d="M7.95,38.48s8.31,4.45,9.38,3.66-2.37,4.34-2.37,4.34l-3.19.19L7,39.61Z"/><path class="cls-15" d="M37.57,23.73S46,28.32,50.49,28.32s11-.67,11-.67-4.37,6.08-9.21,5.75S37.57,23.73,37.57,23.73Z"/></g><path class="cls-4" d="M30,90.33s-.17,3.62-1.91,4.28-2.3,4.84-2.3,4.84,9.9,1.73,13.28,3.71,6.51,7,6.51,7,7-9.07,8.49-9.32,4.69-6.91,3.38-7.26c-2.81-.74-3-10.92-1.71-12.49s3,1.6,4.68,1.6,3.63.08,3.88,2.06,2.8,5,2.8,5,16.35,9.92,16.9,10.14c30,12,4,12.21-1,12.46s-21-.14-22.17,2.75-16.6-1.26-18.33-1.83-14.85.17-16.42.17S1.48,112.74.07,112.9s17.52-7.35,16.86-9.24-3.13-7.83-2.06-9.24,8.82-9.48,10.56-9.9a18.15,18.15,0,0,1,4.27-.26Z"/><g class="cls-16"><path class="cls-17" d="M25.84,99.45s-3.7-5.59-1.2-8.47a86,86,0,0,0,5.56-7.56L33.32,93.8Z"/><path class="cls-17" d="M57.26,79.55S63.64,90.73,62,92.92s-5.06,8.54-7.37,8-6.94-4.29-6.94-4.29l5.13-17.5,3.94-1.37Z"/><path class="cls-17" d="M60.26,82.17s5.69,7.13,3.88,10.13-3.56,12.17-7.37,12.17-10.81,11.08-10.81,11.08,11.81-5.12,12.88-7.69,4.31-9.07,6.31-13,5.25-10.65,2.81-13-7.62-.12-7.62-.12Z"/><path class="cls-17" d="M56.89,87.48s7,2,7.63,3.63,10,11.06,11.94,11.06,20.69,9.34,20.69,9.34l8.13-7.71L84.32,86.48,61,77.15s-5.72,3.4-5.53,3.53S56.89,87.48,56.89,87.48Z"/><path class="cls-17" d="M15.89,103.48s14.88,3.44,18.81,5,9.69,6.06,9.69,6.06-22.25-4.81-24.06-6.81A58.9,58.9,0,0,0,15.89,103.48Z"/></g></g></g></svg>