<svg xmlns="http://www.w3.org/2000/svg" xmlns:xlink="http://www.w3.org/1999/xlink" viewBox="0 0 99.26 133.83"><defs><style>.cls-1{fill:#f0e8e4;}.cls-2{fill:#ede3de;}.cls-3{fill:#efe8e4;}.cls-4{fill:#2f353b;}.cls-5{fill:#5f7a8d;}.cls-6{fill:#b3ccd5;}.cls-7{clip-path:url(#clip-path);}.cls-8{fill:#dec6bd;}.cls-9{clip-path:url(#clip-path-2);}.cls-10{clip-path:url(#clip-path-3);}.cls-11{fill:#dcc4b8;}.cls-12{clip-path:url(#clip-path-4);}.cls-13{fill:none;stroke:#34393d;stroke-linecap:round;stroke-linejoin:round;}.cls-14{fill:#34393d;}.cls-15{fill:#dabfb9;}.cls-16{clip-path:url(#clip-path-5);}.cls-17{clip-path:url(#clip-path-6);}.cls-18{fill:#506d83;}.cls-19{clip-path:url(#clip-path-7);}.cls-20{fill:#acc2cb;}</style><clipPath id="clip-path"><path class="cls-1" d="M64.89,45.44s.79-3,3.5-2.61,6,5.16,6,7.78-4.55,11.25-6.05,11.25-5-14.72-5-14.72Z"/></clipPath><clipPath id="clip-path-2"><path class="cls-1" d="M15.22,45.44s-.79-3-3.5-2.61-6,5.16-6,7.78,4.55,11.25,6.05,11.25,5-14.72,5-14.72Z"/></clipPath><clipPath id="clip-path-3"><path class="cls-2" d="M64.44,113.63S54,97.3,52.42,94.18,52.61,83,52.61,83l-25-.23S29,91,27.42,94.14s-11.75,19.49-11.75,19.49Z"/></clipPath><clipPath id="clip-path-4"><path class="cls-3" d="M65,27.24c2.54,8.21-.69,16.3,0,18.72s5.43,12.71,2.43,20.8S52.54,82.36,50.11,85.48,44,90.91,40.06,90.91,32.43,88.6,30,85.48,15.67,74.85,12.67,66.76,14.4,48.38,15.09,46s-2.54-10.52,0-18.72S32.31,17.07,40.29,17.07,62.48,19,65,27.24Z"/></clipPath><clipPath id="clip-path-5"><path class="cls-4" d="M14.65,40.58c2,.18,1.47-12.31,2.86-12.92s2.23-5.47,2.23-5.47,4.81,3.85,8.49,3.54S34,23.81,36.61,24s11.61,3.54,15.25,2.62a51.12,51.12,0,0,0,8.39-3.32,19.7,19.7,0,0,1,3.8,8.18c1,5,.52,10.6.54,12.79,0,4.35,5.92-13.87,2.68-19.57S62,18.11,62,18.11s1.92-6.32-.16-9.17S58.34,7,58.34,7s-.23-7-1.85-7-4.08,6.55-9.55,6.47-15.1-1.31-19.38.62-8.9,9.48-8.9,9.48S12.73,18,11.19,21.34,12.64,40.4,14.65,40.58Z"/></clipPath><clipPath id="clip-path-6"><path class="cls-5" d="M67.69,86.93s12.18,1.79,14,3.18,11.5,1.68,11.5,1.68S78.42,126,74,126s-26.79,2.23-30.43,1.89-40.29-2.7-40.29-2.7S-3.57,103.63,2.55,100,18.09,88.43,19.13,88.43c.44,0,6.43,9.87,15,14.62,2.85,1.59,8.22,13,11.53,12.9,3.09-.1,4.27-12.2,7.54-14.54C60.84,95.93,67.69,86.93,67.69,86.93Z"/></clipPath><clipPath id="clip-path-7"><path class="cls-6" d="M52.23,83.6c-.26.68-.92,8.24-.92,8.24l-4.39,8.24L44.79,113l-6.64-12.79L27.07,95.61c1.32,1.27,2.06-12.14.14-12.79-.82-.28-8,3.31-8.08,6s.92,10.4,1.93,11.17,14,12.56,14.81,10.34c1.79-4.79,4.69,16.55,6.53,17.32s7.15.08,7.15.08,2.33-19.42,3-19.18,2.5,4.31,2.5,4.31,13.1-21.34,12.64-24.73-10.2-9.05-10.81-8.67S52.48,82.93,52.23,83.6Z"/></clipPath></defs><title>Ресурс 5</title><g id="Слой_2" data-name="Слой 2"><g id="Слой_6" data-name="Слой 6"><path class="cls-1" d="M64.89,45.44s.79-3,3.5-2.61,6,5.16,6,7.78-4.55,11.25-6.05,11.25-5-14.72-5-14.72Z"/><g class="cls-7"><path class="cls-8" d="M68.43,62.71c1.2.49.42-13.7.48-15.1.12-2.91,8.71.17,7.17,2.62l4.78.15S71.26,39.64,68.43,39.6s-9.93,7.4-9,8.32,6.63,15.56,6.63,15.56Z"/></g><path class="cls-1" d="M15.22,45.44s-.79-3-3.5-2.61-6,5.16-6,7.78,4.55,11.25,6.05,11.25,5-14.72,5-14.72Z"/><g class="cls-9"><path class="cls-8" d="M5.69,42.8s4.58,2,5.51,5.27,9.86,2,9.86,2L16.71,38.52Z"/></g><path class="cls-2" d="M64.44,113.63S54,97.3,52.42,94.18,52.61,83,52.61,83l-25-.23S29,91,27.42,94.14s-11.75,19.49-11.75,19.49Z"/><g class="cls-10"><path class="cls-11" d="M24.84,79.13s6.88,15,19.36,17,17-15.43,17-15.43-10.92-3.12-11-3.29S24.84,79.13,24.84,79.13Z"/></g><path class="cls-3" d="M65,27.24c2.54,8.21-.69,16.3,0,18.72s5.43,12.71,2.43,20.8S52.54,82.36,50.11,85.48,44,90.91,40.06,90.91,32.43,88.6,30,85.48,15.67,74.85,12.67,66.76,14.4,48.38,15.09,46s-2.54-10.52,0-18.72S32.31,17.07,40.29,17.07,62.48,19,65,27.24Z"/><g class="cls-12"><path class="cls-8" d="M14.08,40.17s4.09-14.33,6.64-14.33,2.71-7.08,2.38-7.17S18,18.26,18,18.26l-4.67,8.92Z"/><path class="cls-8" d="M20.72,21.92s4.72,10.81,16.55,3.33S27.51,13.09,27.1,13.09,20.72,21.92,20.72,21.92Z"/><path class="cls-8" d="M51.1,28.17c9-1.42,12.75-5.69,12.75-5.69l-7.33-7.81L35.18,17.07l-3,3.61S42.1,29.59,51.1,28.17Z"/></g><path class="cls-13" d="M34.43,42.8a51.82,51.82,0,0,0-4.93-4c-1.54-.92-8.38-.23-8.78,0"/><path class="cls-13" d="M45.68,42.8a51.82,51.82,0,0,1,4.93-4c1.54-.92,8.38-.23,8.78,0"/><ellipse class="cls-14" cx="28.25" cy="49.66" rx="2.31" ry="4.66"/><ellipse class="cls-14" cx="51.86" cy="49.66" rx="2.31" ry="4.66"/><path class="cls-15" d="M40.06,59.94h0c-.6,0-2.22,3.26-1.84,3.64a7.81,7.81,0,0,0,3.69,0C42.28,63.2,40.66,60,40.06,59.94Z"/><path class="cls-15" d="M35.89,72.22c.29-.14,4.25.26,5.06.06s3-1.27,3.26-1S43,74.45,40.49,74.62,35.61,72.36,35.89,72.22Z"/><path class="cls-4" d="M14.65,40.58c2,.18,1.47-12.31,2.86-12.92s2.23-5.47,2.23-5.47,4.81,3.85,8.49,3.54S34,23.81,36.61,24s11.61,3.54,15.25,2.62a51.12,51.12,0,0,0,8.39-3.32,19.7,19.7,0,0,1,3.8,8.18c1,5,.52,10.6.54,12.79,0,4.35,5.92-13.87,2.68-19.57S62,18.11,62,18.11s1.92-6.32-.16-9.17S58.34,7,58.34,7s-.23-7-1.85-7-4.08,6.55-9.55,6.47-15.1-1.31-19.38.62-8.9,9.48-8.9,9.48S12.73,18,11.19,21.34,12.64,40.4,14.65,40.58Z"/><g class="cls-16"><path d="M63.09,9.36s-3.47,11.17-7.55,11.4-6.93,6.86-6.93,6.86,10.09.54,13.48-8.4S63.09,9.36,63.09,9.36Z"/><path d="M58.62,25.54,60,21s6.67,8.95,6,12.56,1.69,11.94,1.69,11.94L60,48Z"/><path d="M56.49,0s-2.26,11,.13,10.74S63.4,3.5,63.4,3.5Z"/><path d="M20.18,24.46l-.31-3.62s-6.39,6.63-5.62,7.86,1.39,13.71,1.39,13.71l5.93-12.1Z"/></g><path class="cls-5" d="M67.69,86.93s12.18,1.79,14,3.18,11.5,1.68,11.5,1.68S78.42,126,74,126s-26.79,2.23-30.43,1.89-40.29-2.7-40.29-2.7S-3.57,103.63,2.55,100,18.09,88.43,19.13,88.43c.44,0,6.43,9.87,15,14.62,2.85,1.59,8.22,13,11.53,12.9,3.09-.1,4.27-12.2,7.54-14.54C60.84,95.93,67.69,86.93,67.69,86.93Z"/><g class="cls-17"><path class="cls-18" d="M66.13,92.07s12,2.16,13.17,3.24,15.33,4.62,15.33,4.62l4.62-13L72.2,84.6H67.69Z"/><path class="cls-18" d="M19.6,87.58s.52,10.32,1.85,11.88,16.13,8.67,16.7,10.69-4,1.5-4,1.5S19.08,100,18.79,99.18s0-13.12,0-13.12Z"/><polygon class="cls-18" points="72.2 90.14 52.11 119.52 49.11 109.48 54.42 95.69 69.83 84.44 72.2 90.14"/><path class="cls-18" d="M79.54,93.38s-13.25,40.76-15.1,40.45,9.55-26.2,9.63-28.2,4.08-13.48,4.08-13.48Z"/><path class="cls-18" d="M7.66,95.77s24.65,35.67,27.81,35.67S32,132.67,32,132.67,6.12,96.85,7.2,95.84"/></g><path class="cls-6" d="M52.23,83.6c-.26.68-.92,8.24-.92,8.24l-4.39,8.24L44.79,113l-6.64-12.79L27.07,95.61c1.32,1.27,2.06-12.14.14-12.79-.82-.28-8,3.31-8.08,6s.92,10.4,1.93,11.17,14,12.56,14.81,10.34c1.79-4.79,4.69,16.55,6.53,17.32s7.15.08,7.15.08,2.33-19.42,3-19.18,2.5,4.31,2.5,4.31,13.1-21.34,12.64-24.73-10.2-9.05-10.81-8.67S52.48,82.93,52.23,83.6Z"/><g class="cls-19"><path class="cls-20" d="M48.57,95.81s5.72-2.12,7.4-3.51,4-2.18,4.31-3.93c.72-3.89-4.74-14.55-7.43-9.71Z"/><path class="cls-20" d="M55,113.18c-.21,0-6.17-12.64-6.86-12.41s-.92,27.62-.92,27.62h5l1.93-12.52Z"/><path class="cls-20" d="M59.55,80.47s6,6.32,5.86,7.82S55,112.87,55,112.87s16.41-19.61,16-22-5.47-8.32-5.47-8.32Z"/><path class="cls-20" d="M42.17,128.51c-.31-.12-3.58-26.2-3.93-26.2s-3.35,11.79-3.35,11.79Z"/><path class="cls-20" d="M27.88,95.61a1.83,1.83,0,0,1-2.39-1.19c-.58-1.81.65-10.75.89-10.86s3-1.19,3-1.19l.23,9.36Z"/><path class="cls-20" d="M44.79,113V131.9l-.55-2.16s-.79-17.09-2.42-20.48a35,35,0,0,1-2-4.56Z"/></g></g></g></svg>