<svg xmlns="http://www.w3.org/2000/svg" xmlns:xlink="http://www.w3.org/1999/xlink" viewBox="0 0 139.04 115.82"><defs><style>.cls-1{fill:#ede3de;}.cls-2{fill:#ede3dd;}.cls-3{fill:#b2b3a9;}.cls-4{fill:#6e4f3a;}.cls-5{clip-path:url(#clip-path);}.cls-6{fill:#dcc4b8;}.cls-7{clip-path:url(#clip-path-2);}.cls-11,.cls-8{fill:none;stroke-linecap:round;stroke-miterlimit:10;}.cls-8{stroke:#6e4f3a;}.cls-9{fill:#3f3029;}.cls-10{fill:#dabfb9;}.cls-11{stroke:#dabfb9;}.cls-12{clip-path:url(#clip-path-3);}.cls-13{fill:#707060;}.cls-14{clip-path:url(#clip-path-4);}.cls-15{fill:#5b4232;}</style><clipPath id="clip-path"><path class="cls-1" d="M86.39,98.76s-11.31-7.67-13-11,.21-12.09.21-12.09l-27-.24S48,84.3,46.35,87.68,33.64,98.76,33.64,98.76Z"/></clipPath><clipPath id="clip-path-2"><path class="cls-2" d="M68.1,14.41c5.83.83,7.92,2.5,10.08,5.42s8.42,17.42,7,22.33,4.7,17,.14,23.67C82.48,70,76,74.65,69.93,78.07c-3.66,2.05-7,4-9.92,4.17-2.91-.16-6.26-2.11-9.92-4.17C44,74.65,37.56,70,34.71,65.82c-4.56-6.67,1.56-18.75.14-23.67s4.83-19.42,7-22.33,4.25-4.58,10.08-5.42Z"/></clipPath><clipPath id="clip-path-3"><path class="cls-3" d="M47,78.77a30.23,30.23,0,0,1-.07,7.09C47.47,89.29,54,89,57,89s8.37.12,10.62.19,4.39-.29,5-2.66c.18-.74.06-2.85.15-5.27a30.81,30.81,0,0,1,.8-5.3l.68-.44c.7-.42,8.17,4.58,8.17,5.33s-1.81,11.25.69,12.06,30.63,11.37,33.81,13.94,9.69,8.44,9.69,8.44H0s11.38-12.19,14.31-12.19S31.19,98,30.81,94.9a46.42,46.42,0,0,0-2-8.12c-.5-1.5,3.06-3.44,4.56-4s7.69-4.19,9.19-4.19S47.28,78.14,47,78.77Z"/></clipPath><clipPath id="clip-path-4"><path class="cls-4" d="M44,19.66s-2.33,19.52-6.46,23.4-4.87,15.88-1.25,23.31S47.4,74.89,47.08,76.91C46.25,82.07,22.49,80,22,76.68c-.32-2,2.88-6.81,1.81-7.87s-7.94-9.12-5.37-14,6.75-14.69,6.63-16-.19-24.37,11.5-30.94S59.27-1.45,69.77.74,83.27,16.3,83.83,18.05s14.35,14.06,15.56,21-1.33,27.81-1.31,33.38,6.1,14.81,14.69,19.06,19,2.06,19.88,3.13,6.56,13.13-7.56,17.63-33.25-.56-35.75-2.44S71.2,98.74,73.39,91.61s.75-14.19.75-17.56,3.13-10.56,6.63-13.25,1.1-13.23-1.31-19.19S73.7,24.55,70.14,26.18s-9.87.81-17.75-.62S44,19.66,44,19.66Z"/></clipPath></defs><title>Ресурс 3</title><g id="Слой_2" data-name="Слой 2"><g id="Слой_4" data-name="Слой 4"><path class="cls-1" d="M86.39,98.76s-11.31-7.67-13-11,.21-12.09.21-12.09l-27-.24S48,84.3,46.35,87.68,33.64,98.76,33.64,98.76Z"/><g class="cls-5"><path class="cls-6" d="M43.56,71.45S51,87.63,64.5,89.82,82.87,73.13,82.87,73.13,71.06,69.76,71,69.57,43.56,71.45,43.56,71.45Z"/></g><path class="cls-2" d="M68.1,14.41c5.83.83,7.92,2.5,10.08,5.42s8.42,17.42,7,22.33,4.7,17,.14,23.67C82.48,70,76,74.65,69.93,78.07c-3.66,2.05-7,4-9.92,4.17-2.91-.16-6.26-2.11-9.92-4.17C44,74.65,37.56,70,34.71,65.82c-4.56-6.67,1.56-18.75.14-23.67s4.83-19.42,7-22.33,4.25-4.58,10.08-5.42Z"/><g class="cls-7"><path class="cls-6" d="M32.31,46.86s11-7,12.13-11.37.5-19.42.5-19.42L39.85,18,31.66,39.16Z"/><path class="cls-6" d="M43.8,21s5.89,10.13,22.14,7.79,16.83-8.25,16.83-8.25L67.93,10.82,49.68,6.74l-9.75,9.75Z"/></g><path class="cls-8" d="M44.37,43c.13-.08,3.58-1,5.5-.37a9,9,0,0,1,3.38,2.08"/><path class="cls-8" d="M75.66,43c-.12-.08-3.58-1-5.5-.37a9,9,0,0,0-3.37,2.08"/><ellipse class="cls-9" cx="50.1" cy="53.09" rx="3.48" ry="1.46" transform="translate(-6.52 99.17) rotate(-85.8)"/><ellipse class="cls-9" cx="69.93" cy="53.09" rx="1.46" ry="3.48" transform="translate(-3.7 5.27) rotate(-4.2)"/><path class="cls-10" d="M57.79,58.95a5.65,5.65,0,0,1,2.46-.54,8.14,8.14,0,0,1,2,.54s-1.5,5.17-2.23,5.21S57.79,58.95,57.79,58.95Z"/><path class="cls-11" d="M56,69.24s6.33,1.75,8-1.5"/><ellipse class="cls-6" cx="43.74" cy="62.45" rx="4.03" ry="4.78"/><ellipse class="cls-6" cx="76.3" cy="62.45" rx="4.03" ry="4.78"/><path class="cls-3" d="M47,78.77a30.23,30.23,0,0,1-.07,7.09C47.47,89.29,54,89,57,89s8.37.12,10.62.19,4.39-.29,5-2.66c.18-.74.06-2.85.15-5.27a30.81,30.81,0,0,1,.8-5.3l.68-.44c.7-.42,8.17,4.58,8.17,5.33s-1.81,11.25.69,12.06,30.63,11.37,33.81,13.94,9.69,8.44,9.69,8.44H0s11.38-12.19,14.31-12.19S31.19,98,30.81,94.9a46.42,46.42,0,0,0-2-8.12c-.5-1.5,3.06-3.44,4.56-4s7.69-4.19,9.19-4.19S47.28,78.14,47,78.77Z"/><g class="cls-12"><path class="cls-13" d="M45.31,78s-2.33,6.13.21,8a15,15,0,0,0,4.79,2.49l1.74-5.41-2.12-4.29Z"/><path class="cls-13" d="M78.08,76.74S78,89.85,76.3,91.68s4,6.38,6.41,6.63,14,14.13,18.81,13.94,23.94-.37,23.94-.37l-7-15.88L92,83.11Z"/><path class="cls-13" d="M69.71,89.05s7.59.43,8.8-3.27A77.89,77.89,0,0,0,80.64,74.7c0-.12-6.29-1.42-6.29-1.42L68,81.95Z"/><path class="cls-13" d="M27.77,95.68s26,5.56,35.51,3.94-.54-2.5-5.49-2.5-30.46-3.87-30.46-3.87Z"/><path class="cls-13" d="M27.14,85.8s10,5,14.75,4.81a29.62,29.62,0,0,1,8.94,1.13s-18.5,1.94-22.31,0S27.14,85.8,27.14,85.8Z"/><path class="cls-13" d="M82.18,86.7s-2.12,6.42-10.62,7.5,9.68.85,9.68.85S88.1,89.57,88,89.53,82.18,86.7,82.18,86.7Z"/></g><path class="cls-4" d="M44,19.66s-2.33,19.52-6.46,23.4-4.87,15.88-1.25,23.31S47.4,74.89,47.08,76.91C46.25,82.07,22.49,80,22,76.68c-.32-2,2.88-6.81,1.81-7.87s-7.94-9.12-5.37-14,6.75-14.69,6.63-16-.19-24.37,11.5-30.94S59.27-1.45,69.77.74,83.27,16.3,83.83,18.05s14.35,14.06,15.56,21-1.33,27.81-1.31,33.38,6.1,14.81,14.69,19.06,19,2.06,19.88,3.13,6.56,13.13-7.56,17.63-33.25-.56-35.75-2.44S71.2,98.74,73.39,91.61s.75-14.19.75-17.56,3.13-10.56,6.63-13.25,1.1-13.23-1.31-19.19S73.7,24.55,70.14,26.18s-9.87.81-17.75-.62S44,19.66,44,19.66Z"/><g class="cls-14"><path class="cls-15" d="M23.43,31.16s-.67,10.5,7.42,13.54,9.33,3.63,9.33,3.63-16.75,1.18-17.83-5.91,1.08-11.68,1.08-11.68Z"/><path class="cls-15" d="M19.39,63.43S26.77,69.05,30,69.11s10.12,0,10.12,0S35.22,72.49,33,72.36s-12.48-3.64-12.48-3.64Z"/><path class="cls-15" d="M68.89,26.61S74.14,23.8,75,22.05,77.52,15,77.52,15s3.75,4.78,2.81,5.81S72.27,26.43,68.89,26.61Z"/><path class="cls-15" d="M31.2,80.36s8.87.56,10.87-3.5a13.69,13.69,0,0,1,4.5-5.56l2.94,5.63-1.06,3.46H30.89Z"/><path class="cls-15" d="M42.27,4.55s0,14.87,2.11,16.37-1.42,1.25-2.11.88S40.77,9.61,42.27,4.55Z"/><path class="cls-15" d="M100,36.07s-3.17,23.17-9.17,28.08,12.92-6.33,12.92-8.92S100,36.07,100,36.07Z"/><path class="cls-15" d="M85.27,108.32s38.58,7,43.67-3.67S139,92,139,92s1.5,22.75-19.5,23.75S85.27,108.32,85.27,108.32Z"/><path class="cls-15" d="M73.54,75.93l.85-.54s2.88,10.11,1,12-2.66,2.91-2.66,2.91l-1-8.59Z"/></g></g></g></svg>