<svg xmlns="http://www.w3.org/2000/svg" xmlns:xlink="http://www.w3.org/1999/xlink" viewBox="0 0 108.38 105.5"><defs><style>.cls-1{fill:#ede3de;}.cls-2{fill:#ede3dd;}.cls-3{fill:#c6c3d1;}.cls-4{fill:#d4c7ab;}.cls-5{clip-path:url(#clip-path);}.cls-6{fill:#dcc4b8;}.cls-7{clip-path:url(#clip-path-2);}.cls-8{fill:#dabfb9;}.cls-9{clip-path:url(#clip-path-3);}.cls-10{fill:#afacc4;}.cls-11{clip-path:url(#clip-path-4);}.cls-12{fill:#c6b79e;}.cls-13{fill:none;stroke:#352b26;stroke-linecap:round;stroke-linejoin:round;}.cls-14{fill:#291f1d;}</style><clipPath id="clip-path"><path class="cls-1" d="M75.46,94.75s-11.31-7.67-13-11,.21-12.09.21-12.09l-27-.24s1.48,8.92-.21,12.29S22.71,94.75,22.71,94.75Z"/></clipPath><clipPath id="clip-path-2"><path class="cls-2" d="M49.09,80.93c-8,0-27-19-27.25-25.5s5.5-5.75,4.25-20.75,13-16.18,23-16.25,24.25,1.25,23,16.25,4.5,14.25,4.25,20.75S57.09,80.93,49.09,80.93Z"/></clipPath><clipPath id="clip-path-3"><path class="cls-3" d="M37,77.81s4.62,5.75,11.18,5.81S60.27,78.5,61.34,78.5s6.85,3.88,6.67,5.63,5.75,7.13,6.56,7.13,2.63,5.25,12.94,4.13,21.06,9.69,20.88,9.69H2.56s14.75-9.23,17.81-10.31c4.94-1.75,6.17-2.6,8.17-4,1.34-1,2.46-5.1,3.27-6.1a10.05,10.05,0,0,0,1.31-4.25C33.19,79.56,36,77.81,37,77.81Z"/></clipPath><clipPath id="clip-path-4"><path class="cls-4" d="M70.4,15.25c7.75,7.25-2.25,14.67-15,16.17S35.15,21.33,35.15,21.33C24.23,34.93,28.56,36,26.06,51.08S33.48,68.5,37,72.16s4.08,24.75-3.83,29.58-16.92,0-16.92,0,5.17-5.25,0-10.25S1.56,75.16,3.48,68.75,14.15,45,14.06,38.25s6.17-30.17,12.83-31S36,9.75,36,9.75,46.4-3,62.4.66,81.06,26,81.06,26s20.08,27.42,18.25,35.17-8.58,7.75-8.83,14.58,10.67,12.67,7.33,16.17S80.48,99.58,73.56,92s-10.32-9.52-12.4-14.43S78.87,56.12,75,54.25c-8.7-4.21-4.4-32.06-4.24-32"/></clipPath></defs><title>Ресурс 2</title><g id="Слой_2" data-name="Слой 2"><g id="Слой_2-2" data-name="Слой 2"><path class="cls-1" d="M75.46,94.75s-11.31-7.67-13-11,.21-12.09.21-12.09l-27-.24s1.48,8.92-.21,12.29S22.71,94.75,22.71,94.75Z"/><g class="cls-5"><path class="cls-6" d="M32.63,67.43s7.44,16.19,20.94,18.38S71.94,69.12,71.94,69.12s-11.81-3.37-11.88-3.56S32.63,67.43,32.63,67.43Z"/><path class="cls-6" d="M69.4,16.41c7.75,7.25,1.92,14.75-10.83,16.25S36.84,22.58,36.84,22.58c-10.92,13.6-7.77,14.28-10.27,29.37S35.43,68.78,38,73.16c2.94,5,4.08,24.75-3.83,29.58s-16.92,0-16.92,0,5.17-5.25,0-10.25S2.56,76.16,4.48,69.75,15.15,46,15.06,39.25s6.17-30.17,12.83-31S37,10.75,37,10.75,47.4-2,63.4,1.66,82.06,27,82.06,27s20.08,27.42,18.25,35.17-8.58,7.75-8.83,14.58,10.67,12.67,7.33,16.17-17.33,7.67-24.25.08-10.32-9.52-12.4-14.43S79.87,57.12,76,55.25c-8.7-4.21-4.4-32.06-4.24-32"/></g><path class="cls-2" d="M49.09,80.93c-8,0-27-19-27.25-25.5s5.5-5.75,4.25-20.75,13-16.18,23-16.25,24.25,1.25,23,16.25,4.5,14.25,4.25,20.75S57.09,80.93,49.09,80.93Z"/><g class="cls-7"><path class="cls-6" d="M69.4,16.41c7.75,7.25,1.92,14.75-10.83,16.25S36.84,22.58,36.84,22.58c-10.92,13.6-7.77,14.28-10.27,29.37S36.2,68.42,38,73.16c1.93,5.14,4.08,24.75-3.83,29.58s-16.92,0-16.92,0,5.17-5.25,0-10.25S2.56,76.16,4.48,69.75,15.15,46,15.06,39.25s6.17-30.17,12.83-31S37,10.75,37,10.75,47.4-2,63.4,1.66,82.06,27,82.06,27s20.08,27.42,18.25,35.17-8.58,7.75-8.83,14.58,10.67,12.67,7.33,16.17-17.33,7.67-24.25.08-10.32-9.52-12.4-14.43S79.87,57.12,76,55.25c-8.7-4.21-4.4-32.06-4.24-32"/></g><ellipse class="cls-6" cx="32.8" cy="57.62" rx="4.03" ry="4.78"/><ellipse class="cls-6" cx="65.37" cy="57.62" rx="4.03" ry="4.78"/><path class="cls-8" d="M45.66,63.05a.61.61,0,0,1,.55-.91c.94,0,2.45.3,3.45.26s1.72-.31,2.37-.3a.62.62,0,0,1,.53.92,3.82,3.82,0,0,1-3.47,2.17A4,4,0,0,1,45.66,63.05Z"/><path class="cls-8" d="M49.09,52.25h0c-.72,0-2.67,3.92-2.21,4.37s4.08.35,4.43,0S49.81,52.27,49.09,52.25Z"/><path class="cls-3" d="M37,77.81s4.62,5.75,11.18,5.81S60.27,78.5,61.34,78.5s6.85,3.88,6.67,5.63,5.75,7.13,6.56,7.13,2.63,5.25,12.94,4.13,21.06,9.69,20.88,9.69H2.56s14.75-9.23,17.81-10.31c4.94-1.75,6.17-2.6,8.17-4,1.34-1,2.46-5.1,3.27-6.1a10.05,10.05,0,0,0,1.31-4.25C33.19,79.56,36,77.81,37,77.81Z"/><g class="cls-9"><path class="cls-10" d="M31.5,80.93a18.5,18.5,0,0,0,13,5.65c7.92-.08-13.2,2.17-15.73.83S31.5,80.93,31.5,80.93Z"/><path class="cls-10" d="M26.75,89.5S30,92,38.67,92.33s18.67,4.5,10.42,3.92A208.3,208.3,0,0,1,25.5,92.9C21.92,92.08,26.75,89.5,26.75,89.5Z"/><path class="cls-10" d="M71.67,88.33c-3.33,4.58-13.39,5.75-16.19,6.42s18.3,1.33,20.87-1.17S71.67,88.33,71.67,88.33Z"/><path class="cls-10" d="M2.92,105.5S23.33,94.75,26.58,94.75s0-4.75,0-4.75L10.5,91.43,0,104.58Z"/><path class="cls-10" d="M44.31,81.81s4.32,5.19,8.63,5.27,13.19-3.19,14.79-3.85-1.06-8-1.06-8l-6.58-.42Z"/><path class="cls-10" d="M62.92,77.81s-5.81-2.87-2.29,1,5,12,5.62,14,10.58,5.91,13.42,5.08,8.67-5.42,8.67-5.42Z"/><path class="cls-10" d="M68.33,83.06S56.67,86.5,50.75,87s4.17,2.83,6.83,2.33,13.92-4.58,14.17-4.58S68.33,83.06,68.33,83.06Z"/><path class="cls-10" d="M76.83,93.16s.74,3.4,3.91,4.24,14.35,2.66,16.84,0-1.76-6-1.76-6Z"/><path class="cls-10" d="M16.61,101.31A8,8,0,0,0,21,103.89c3.17.85,16.5,1.19,16.75-1.65S41,85,39.61,83.06s-12.11,1.1-12.11,1.1Z"/></g><path class="cls-4" d="M70.4,15.25c7.75,7.25-2.25,14.67-15,16.17S35.15,21.33,35.15,21.33C24.23,34.93,28.56,36,26.06,51.08S33.48,68.5,37,72.16s4.08,24.75-3.83,29.58-16.92,0-16.92,0,5.17-5.25,0-10.25S1.56,75.16,3.48,68.75,14.15,45,14.06,38.25s6.17-30.17,12.83-31S36,9.75,36,9.75,46.4-3,62.4.66,81.06,26,81.06,26s20.08,27.42,18.25,35.17-8.58,7.75-8.83,14.58,10.67,12.67,7.33,16.17S80.48,99.58,73.56,92s-10.32-9.52-12.4-14.43S78.87,56.12,75,54.25c-8.7-4.21-4.4-32.06-4.24-32"/><g class="cls-11"><path class="cls-12" d="M37.6,70.77s-.92,28.6-8.44,30.69c-2,.55-2.68,1.94-2.62,2.39.16,1.27,6.26,1.21,6.26,1.21S44.56,92.64,42.85,85.14A69.43,69.43,0,0,0,37.6,70.77Z"/><path class="cls-12" d="M62.54,72.23a22.3,22.3,0,0,0,4.56,9.53,26.9,26.9,0,0,0,13.25,7.81c7.94,1.63,20.19.13,20.19.13L87.17,100.52S56.36,84.18,57,83.06,62.54,72.23,62.54,72.23Z"/><path class="cls-12" d="M100,54.57S94.17,68.14,91.1,69.08s-.37,8.73-.37,8.73,9.56.17,9.56,0S100,54.57,100,54.57Z"/><path class="cls-12" d="M14.63,30.69S12,38,16.32,40.75s7,2.56,7,2.56-5.21,5-8.53,1.45-2.29-13.7-2.29-13.7Z"/><path class="cls-12" d="M16.54,93.27S21.1,94.39,25,89.2s-1,7.31-6.12,9.31S16.54,93.27,16.54,93.27Z"/><path class="cls-12" d="M36.48,8.58c-.19,0-2.31,9.75-1.56,14.25s-5-5.75-4.37-7.75,2.87-7.69,4.62-7.69S36.48,8.58,36.48,8.58Z"/><path class="cls-12" d="M70.25,25.52s3.6-4.5,1.92-9.5,6.48,4.25,4.18,7.81-7.73,5.66-7.73,5.66Z"/><path class="cls-12" d="M67.85,37.39S70,49.33,73.73,50s2.19,5.92,1.63,5.81-9.54-3-9.54-3Z"/></g><path class="cls-13" d="M32.36,38.11s2.41-2.16,4.91-2.14,6.07,1.81,6.07,1.81"/><path class="cls-13" d="M65.81,38.11S63.4,35.95,60.9,36s-6.07,1.81-6.07,1.81"/><ellipse class="cls-14" cx="39.61" cy="45.89" rx="1.52" ry="3.81"/><ellipse class="cls-14" cx="58.56" cy="45.89" rx="1.52" ry="3.81"/></g></g></svg>