<svg xmlns="http://www.w3.org/2000/svg" viewBox="0 0 175.75 175.75"><defs><style>.cls-1{fill:#fff;}</style></defs><title>монеты 3</title><g id="Слой_1" data-name="Слой 1"><path class="cls-1" d="M126.43,78.63c1.44.78,3.37,20.43,0,21.66-1.68.61-23.56,1.45-32.09,1.45s-30.41-.84-32.09-1.45c-3.37-1.23-2-20.76,0-21.66s8-1.56,32-1.56S125,77.85,126.43,78.63Z"/><path class="cls-1" d="M113.69,103.3c1.44.78,3.37,20.43,0,21.66-1.68.61-23.56,1.45-32.09,1.45S51.18,125.57,49.5,125c-3.37-1.23-2-20.76,0-21.66s8-1.56,32-1.56S112.25,102.52,113.69,103.3Z"/><path class="cls-1" d="M126.43,128c1.44.78,3.37,20.43,0,21.66-1.68.61-23.56,1.45-32.09,1.45s-30.41-.84-32.09-1.45c-3.37-1.23-2-20.76,0-21.66s8-1.56,32-1.56S125,127.19,126.43,128Z"/><path class="cls-1" d="M121.95,152.64c1.44.78,3.37,20.43,0,21.66-1.68.61-23.56,1.45-32.09,1.45s-30.41-.84-32.09-1.45c-3.37-1.23-2-20.76,0-21.66s8-1.56,32-1.56S120.5,151.86,121.95,152.64Z"/><path class="cls-1" d="M80.8,63.79A37.45,37.45,0,0,1,67.68,60.4a1.1,1.1,0,0,1-.5-1.5L70.73,52a1.1,1.1,0,0,1,1.5-.46c4.55,2.38,7.11,3.57,11.53,3.57q10.91,0,10.91-6a7.76,7.76,0,0,0-2.79-5.65Q89.1,40.85,81.3,37.73T70.7,32.55a14.28,14.28,0,0,1-4.31-4.91,13.42,13.42,0,0,1-1.5-6.35A12.37,12.37,0,0,1,69,12.17c2.54-2.47,7.82-4.17,12-5.1A1.1,1.1,0,0,0,81.82,6V1.1A1.1,1.1,0,0,1,82.92,0h8.7a1.1,1.1,0,0,1,1.1,1.11l0,4.38a1.11,1.11,0,0,0,1,1.1q7.16.68,11.14,2.81a1.11,1.11,0,0,1,.5,1.43l-2.88,6.53a1.1,1.1,0,0,1-1.53.52c-4-2.1-5.4-3.16-9.84-3.16a10.57,10.57,0,0,0-6.65,1.84,5.68,5.68,0,0,0-2.36,4.66q0,4.79,13.3,10a35.36,35.36,0,0,1,9.14,5,16,16,0,0,1,4.72,5.36,14.36,14.36,0,0,1,1.62,6.83,12.3,12.3,0,0,1-4.29,9.3c-2.69,2.49-8.29,4.25-13,5.28a1.1,1.1,0,0,0-.88,1.07v6.75a1.1,1.1,0,0,1-1.1,1.1H82.92a1.1,1.1,0,0,1-1.1-1.1V64.88A1.1,1.1,0,0,0,80.8,63.79Z"/></g></svg>