<svg xmlns="http://www.w3.org/2000/svg" viewBox="0 0 175.75 175.75"><defs><style>.cls-1{fill:#1d1d1b;}</style></defs><title>орёл 2</title><g id="Слой_1" data-name="Слой 1"><path class="cls-1" d="M95.52,24.83c-1.59,2.15-2.15,9,1.91,8.48s26.86-10.86,30.45-10.75,19.22,34.15,19.22,44.06-9.55,76.17-14.57,76.17-5.25-19.66-5.25-19.66-2.68,7.91-6.5,7.91-6.15-27-6.15-27-2.37,4.66-4.64,4.78-5.87-8.16-5.87-8.16S98,112.59,98,115.93s12.42,56,11.1,57.79S96,163.93,96,163.93s-6.57,11.82-8.12,11.82-8.12-11.82-8.12-11.82-11.82,11.58-13.13,9.79,11.1-54.44,11.1-57.79-6.09-15.28-6.09-15.28-3.6,8.28-5.87,8.16S61.13,104,61.13,104,58.8,131,55,131s-6.5-7.91-6.5-7.91-.24,19.66-5.25,19.66S28.65,76.53,28.65,66.62,44.3,22.68,47.88,22.57,74.26,32.83,78.32,33.31s4.22-7.17,4-8.53-2-3.53-3.83-4.57-8.6-.16-9.79.72-2.55-2.71.4-5.57,9.79-6.21,13.13-6.29c2.15-4.3,5.3-6.17,9.68-6.33s9.59-.2,22.16-2.75c1.51,1-6.37,13-8.84,18.47S97.11,22.68,95.52,24.83Z"/></g></svg>